<svg width="103" height="75" viewBox="0 0 103 75" fill="none" xmlns="http://www.w3.org/2000/svg">
<path d="M49.1398 10.6057L99.6071 15.1936C100.74 15.2966 101.35 16.5733 100.719 17.5195L63.2441 73.7325C62.939 74.1902 62.4079 74.4441 61.8602 74.3943L11.3929 69.8064C10.2603 69.7034 9.64976 68.4268 10.2806 67.4805L47.7559 11.2675C48.061 10.8098 48.5921 10.5559 49.1398 10.6057Z" fill="white" stroke="black"/>
<path d="M41.1398 0.605682L91.6071 5.19362C92.7397 5.29658 93.3502 6.57325 92.7194 7.51951L55.2441 63.7325C54.939 64.1902 54.4079 64.4441 53.8602 64.3943L3.39287 59.8064C2.26028 59.7034 1.64976 58.4268 2.2806 57.4805L39.7559 1.26747C40.061 0.809849 40.5921 0.555888 41.1398 0.605682Z" fill="white" stroke="black"/>
</svg>
