<svg width="32" height="32" viewBox="0 0 32 32" fill="none" xmlns="http://www.w3.org/2000/svg">
<path d="M15.959 7.61324L27.6947 8.72702C28.8113 8.83299 29.4209 10.0823 28.8172 11.0276L19.4469 25.7008C19.1441 26.1751 18.6012 26.4399 18.041 26.3868L6.30532 25.273C5.18867 25.167 4.57913 23.9177 5.18283 22.9724L14.5531 8.29921C14.8559 7.82493 15.3988 7.56007 15.959 7.61324Z" fill="white" stroke="black"/>
<path d="M13.959 4.61324L25.6947 5.72702C26.8113 5.83299 27.4209 7.08228 26.8172 8.02763L17.4469 22.7008C17.1441 23.1751 16.6012 23.4399 16.041 23.3868L4.30532 22.273C3.18867 22.167 2.57913 20.9177 3.18283 19.9724L12.5531 5.29921C12.8559 4.82493 13.3988 4.56007 13.959 4.61324Z" fill="white" stroke="black"/>
</svg>
