<svg width="123" height="67" viewBox="0 0 123 67" fill="none" xmlns="http://www.w3.org/2000/svg">
<path d="M24.52 16.44C26.8667 16.44 28.808 16.8667 30.344 17.72C31.9227 18.5733 33.16 19.6827 34.056 21.048C34.9947 22.3707 35.6347 23.864 35.976 25.528C36.36 27.192 36.552 28.856 36.552 30.52V51H21.704V33.08C21.704 31.3733 21.4267 30.1787 20.872 29.496C20.36 28.8133 19.5707 28.472 18.504 28.472C17.6507 28.472 16.8827 28.856 16.2 29.624C15.5173 30.3493 15.176 31.5227 15.176 33.144V51H0.392V2.616H15.176V21.048H15.304C16.1573 19.8107 17.3733 18.744 18.952 17.848C20.5307 16.9093 22.3867 16.44 24.52 16.44ZM80.073 34.04C80.073 36.9413 79.5397 39.5227 78.473 41.784C77.449 44.0453 76.041 45.9653 74.249 47.544C72.4997 49.08 70.4517 50.2533 68.105 51.064C65.801 51.8747 63.369 52.28 60.809 52.28C58.2917 52.28 55.8597 51.8747 53.513 51.064C51.209 50.2533 49.1823 49.08 47.433 47.544C45.6837 45.9653 44.2757 44.0453 43.209 41.784C42.185 39.5227 41.673 36.9413 41.673 34.04C41.673 31.1813 42.185 28.6427 43.209 26.424C44.2757 24.1627 45.6837 22.264 47.433 20.728C49.1823 19.192 51.209 18.04 53.513 17.272C55.8597 16.4613 58.2917 16.056 60.809 16.056C63.369 16.056 65.801 16.4613 68.105 17.272C70.4517 18.04 72.4997 19.192 74.249 20.728C76.041 22.264 77.449 24.1627 78.473 26.424C79.5397 28.6427 80.073 31.1813 80.073 34.04ZM60.809 28.472C59.1877 28.472 57.865 29.0267 56.841 30.136C55.8597 31.2453 55.369 32.5467 55.369 34.04C55.369 35.6187 55.881 36.9627 56.905 38.072C57.929 39.1813 59.2517 39.736 60.873 39.736C62.4943 39.736 63.817 39.1813 64.841 38.072C65.865 36.9627 66.377 35.6187 66.377 34.04C66.377 32.5467 65.8437 31.2453 64.777 30.136C63.753 29.0267 62.4303 28.472 60.809 28.472ZM100.813 50.232C100.813 52.408 100.578 54.456 100.109 56.376C99.6823 58.3387 98.893 60.0453 97.741 61.496C96.589 62.9893 95.0317 64.1627 93.069 65.016C91.1063 65.912 88.6317 66.36 85.645 66.36C84.7917 66.36 83.7677 66.296 82.573 66.168C81.3783 66.04 80.3543 65.848 79.501 65.592L80.269 53.56C80.7383 53.688 81.1863 53.7733 81.613 53.816C81.997 53.8587 82.3383 53.88 82.637 53.88C83.7463 53.88 84.5783 53.56 85.133 52.92C85.7303 52.3227 86.029 51.2773 86.029 49.784V17.336H100.813V50.232ZM85.773 7.608C85.773 6.584 85.965 5.624 86.349 4.728C86.7757 3.78933 87.3303 2.97866 88.013 2.296C88.7383 1.61333 89.5703 1.08 90.509 0.695999C91.4477 0.26933 92.429 0.0559959 93.453 0.0559959C94.477 0.0559959 95.437 0.26933 96.333 0.695999C97.2717 1.08 98.0823 1.61333 98.765 2.296C99.4903 2.97866 100.045 3.78933 100.429 4.728C100.856 5.624 101.069 6.584 101.069 7.608C101.069 8.67466 100.856 9.67733 100.429 10.616C100.045 11.512 99.4903 12.3013 98.765 12.984C98.0823 13.624 97.2717 14.136 96.333 14.52C95.437 14.904 94.477 15.096 93.453 15.096C92.429 15.096 91.4477 14.904 90.509 14.52C89.5703 14.136 88.7383 13.624 88.013 12.984C87.3303 12.3013 86.7757 11.512 86.349 10.616C85.965 9.67733 85.773 8.67466 85.773 7.608ZM107.706 17.336H122.49V51H107.706V17.336ZM107.45 7.608C107.45 6.584 107.642 5.624 108.026 4.728C108.453 3.78933 109.007 2.97866 109.69 2.296C110.415 1.61333 111.247 1.08 112.186 0.695999C113.125 0.26933 114.127 0.0559959 115.194 0.0559959C116.218 0.0559959 117.178 0.26933 118.074 0.695999C118.97 1.08 119.759 1.61333 120.442 2.296C121.167 2.97866 121.722 3.78933 122.106 4.728C122.533 5.624 122.746 6.584 122.746 7.608C122.746 8.67466 122.533 9.67733 122.106 10.616C121.722 11.512 121.167 12.3013 120.442 12.984C119.759 13.624 118.97 14.136 118.074 14.52C117.178 14.904 116.218 15.096 115.194 15.096C114.127 15.096 113.125 14.904 112.186 14.52C111.247 14.136 110.415 13.624 109.69 12.984C109.007 12.3013 108.453 11.512 108.026 10.616C107.642 9.67733 107.45 8.67466 107.45 7.608Z" fill="url(#paint0_linear)"/>
<defs>
<linearGradient id="paint0_linear" x1="-51.1017" y1="2" x2="105.112" y2="87.6756" gradientUnits="userSpaceOnUse">
<stop offset="0.00838712" stop-color="#EF5B5B"/>
<stop offset="1" stop-color="#FDC638"/>
</linearGradient>
</defs>
</svg>
